<?xml version="1.0" encoding="utf-8"?>
<svg fill="#CC7777" height="960px" width="960px" xmlns="http://www.w3.org/2000/svg" viewBox="0 0 960 960">
<path d="M200,840Q149,840 127.5,794.5Q106,749 138,710L360,440L360,200L320,200Q303,200 291.5,188.5Q280,177 280,160Q280,143 291.5,131.5Q303,120 320,120L640,120Q657,120 668.5,131.5Q680,143 680,160Q680,177 668.5,188.5Q657,200 640,200L600,200L600,440L822,710Q854,749 832.5,794.5Q811,840 760,840L200,840ZM280,720L680,720L544,560L416,560L280,720ZM200,760L760,760L520,468L520,200L440,200L440,468L200,760ZM480,480L480,480L480,480L480,480L480,480L480,480L480,480Z"/>
</svg>