<?xml version="1.0" encoding="utf-8"?>
<!-- downloaded by CC0 License, https://www.svgrepo.com/svg/64175/tools, colored red -->
<svg fill="#CC5555" height="800px" width="800px" xmlns="http://www.w3.org/2000/svg" viewBox="0 0 442.037 442.037">
<path d="M292.076,224.047l59.896-59.896c9.69-9.692,21.926-17.104,35.381-21.433c10.86-3.491,20.9-9.63,29.04-17.758
	c14.023-14.03,21.573-32.683,21.258-52.524c-0.314-19.836-8.469-38.252-22.96-51.856l-8.728-8.193L390.1,63.242
	c-3.501,11.209-15.475,17.488-26.686,13.996c-8.951-2.795-14.966-10.969-14.966-20.341c0-2.151,0.326-4.285,0.97-6.346L365.193,0
	l-11.976,1.945c-13.45,2.184-25.93,8.055-36.093,16.982c-17.856,15.711-26.943,39.167-24.31,62.743
	c2.854,25.591-6.265,51.031-25.019,69.794l-24.156,24.148l-43.87-43.87l13.494-13.494l-26.551-26.551
	c14.251-20.992,46.044-49.593,75.545-62.687l13.351-5.926l-12.596-7.396C226.284-5.88,179.234,0.458,148.591,31.102
	c-2.521,2.521-78.083,78.083-78.083,78.083l-5.25,5.25l5.197,5.303c4.561,4.652,2.924,14.072-3.575,20.571
	c-6.499,6.498-15.92,8.135-20.57,3.575l-5.303-5.197L0.502,179.191L76.41,255.1l40.483-40.483l-5.152-5.302
	c-4.525-4.656-2.875-14.063,3.604-20.542c6.478-6.479,15.884-8.129,20.541-3.604l5.302,5.153l12.69-12.69l43.87,43.87
	l-56.385,56.386c-9.681,9.689-21.912,17.1-35.37,21.431c-11.022,3.543-20.792,9.521-29.038,17.767
	c-14.024,14.025-21.576,32.672-21.264,52.507c0.313,19.837,8.468,38.256,22.963,51.864l8.728,8.193l15.868-50.852
	c1.69-5.432,5.397-9.878,10.438-12.521c5.04-2.643,10.805-3.165,16.24-1.468c8.954,2.789,14.971,10.955,14.971,20.319
	c0,2.129-0.33,4.27-0.98,6.358l-15.76,50.551l11.974-1.946c13.454-2.187,25.933-8.058,36.091-16.982
	c17.856-15.711,26.943-39.167,24.31-62.742c-2.854-25.592,6.265-51.032,25.021-69.795l20.633-20.633l139.969,139.969
	c6.327,6.327,14.635,9.489,22.945,9.489c8.309-0.001,16.62-3.164,22.946-9.489c12.651-12.652,12.651-33.238,0-45.89L292.076,224.047
	z M278.403,162.069c21.995-22.006,32.682-51.917,29.319-82.064c-2.092-18.715,5.127-37.338,19.305-49.813
	c4.797-4.213,10.252-7.567,16.137-9.956l-8.063,25.844c-1.097,3.507-1.652,7.146-1.652,10.817c0,15.97,10.246,29.898,25.501,34.661
	c19.103,5.951,39.505-4.746,45.47-23.847l8.281-26.549c6.301,9.22,9.771,20.069,9.953,31.512
	c0.251,15.746-5.74,30.549-16.864,41.677c-6.551,6.542-14.298,11.281-23.028,14.087c-15.714,5.057-30.028,13.739-41.396,25.106
	l-59.896,59.896l-27.222-27.222L278.403,162.069z M159.197,41.709L159.197,41.709c22.236-22.237,54.677-29.312,82.954-19.271
	c-26.842,15.346-52.37,39.261-66.172,58.46l-27.986-27.986C154.32,46.586,158.629,42.277,159.197,41.709z M137.387,63.519
	l54.664,54.728l-49.851,49.85l-54.696-54.696C98.27,102.636,120.501,80.405,137.387,63.519z M21.715,179.191l19.345-19.345
	l54.695,54.696L76.41,233.887L21.715,179.191z M104.739,178.167c-4.462,4.461-7.537,9.644-9.193,14.953l-33.009-33.01
	c5.305-1.657,10.485-4.73,14.95-9.195c4.941-4.941,8.171-10.757,9.666-16.65l34.241,34.241
	C115.496,170,109.676,173.229,104.739,178.167z M214.944,279.965c-21.996,22.006-32.683,51.917-29.32,82.065
	c2.092,18.714-5.127,37.337-19.306,49.812c-4.796,4.213-10.251,7.568-16.139,9.957l8.06-25.852c1.101-3.536,1.659-7.177,1.659-10.82
	c0-15.967-10.252-29.888-25.505-34.639c-9.257-2.89-19.084-2-27.672,2.503c-8.592,4.505-14.91,12.086-17.792,21.342l-8.282,26.541
	c-6.305-9.224-9.777-20.076-9.958-31.52c-0.248-15.739,5.744-30.536,16.873-41.664c6.544-6.545,14.29-11.287,23.023-14.094
	c15.719-5.059,30.031-13.741,41.387-25.106l56.383-56.383l27.223,27.223L214.944,279.965z M421.44,399.3
	c-6.804,6.804-17.876,6.804-24.678,0L164.486,167.024l24.677-24.677l232.276,232.275C428.242,381.427,428.242,392.497,421.44,399.3z
	"/>
</svg>